<svg xmlns="http://www.w3.org/2000/svg" width="23.679" height="16.615" viewBox="0 0 23.679 16.615">
  <g>
    <path fill="rgb(184,191,212)" fill-rule="evenodd" d="M23.48540005 2.03653846L17.3607538 8.35961538c-.0455364.04615385-.0455364.11538462 0 .16153847l4.28611397 4.62692307c.29029458.29423077.29029458.7673077 0 1.06153846-.14230126.14423077-.33583097.21923077-.52366863.21923077-.18783767 0-.38136738-.075-.52366864-.21923077L16.33049267 9.6c-.0455364-.04615385-.11953306-.04615385-.16506946 0l-1.04164523 1.07307692c-.87088372.89423077-2.02636995 1.39038462-3.26723695 1.39615385C10.5985979 12.075 9.4032673 11.53846154 8.5209995 10.6326923L7.5191986 9.6c-.0455364-.04615385-.11953306-.04615385-.16506946 0l-4.26903782 4.60961538c-.14230126.14423077-.33583097.21923077-.52366864.21923077-.18783766 0-.38136738-.075-.52366864-.21923077-.29029457-.29423076-.29029457-.76730769 0-1.06153846l4.28611397-4.62692307c.03984435-.04615385.03984435-.11538462 0-.16153847L.19352972 2.03653846C.11953305 1.96153846 0 2.01346154 0 2.1173077v12.65192308c0 1.01538461.81965526 1.84615385 1.82145614 1.84615385h20.03601749c1.00180087 0 1.82145614-.83076924 1.82145614-1.84615385V2.11730769c0-.10384615-.12522511-.15-.19352972-.08076923z"/>
    <path fill="rgb(184,191,212)" fill-rule="evenodd" d="M11.83946488 10.56346154c.84242347 0 1.63361847-.33461539 2.22559172-.94615385L22.9958837.40384615C22.68282094.15 22.29576151 0 21.86885773 0H1.8157641C1.3888603 0 .99610882.15.6887381.40384615L9.61956522 9.6173077c.5862812.60576923 1.3774762.94615385 2.21989966.94615385z"/>
  </g>
</svg>
