<svg xmlns="http://www.w3.org/2000/svg" width="18.294" height="24" viewBox="0 0 18.294 24">
  <path fill="rgb(184,191,212)" fill-rule="evenodd" d="M16.00698853 8H14.8636322V5.71429443C14.8636322 2.57144165 12.2910843 0 9.1468544 0S3.43006897 2.57144165 3.43006897 5.71429443V8H2.28671265C1.02890778 8 0 9.02844238 0 10.28570557v11.42858886C0 22.97155762 1.02890778 24 2.28671265 24h13.72027588c1.2578125 0 2.28672027-1.02844238 2.28672027-2.28570557V10.28570557C18.2937088 9.02844238 17.26480103 8 16.00698853 8zM5.60233307 5.71429443V8h7.08904266V5.71429443c0-1.94308471-1.60058594-3.54296875-3.54452133-3.54296875-1.9436493 0-3.54452133 1.59988404-3.54452133 3.54296875zM9.1468544 18.40002441c-1.25780487 0-2.28671265-1.0284729-2.28671265-2.28573608s1.02890778-2.28570557 2.28671265-2.28570557c1.25780869 0 2.28671265 1.02844239 2.28671265 2.28570557 0 1.25726318-1.02890396 2.28573608-2.28671265 2.28573608z"/>
</svg>
